<?xml version="1.0" encoding="UTF-8" standalone="no"?>
<svg
   xmlns:dc="http://purl.org/dc/elements/1.1/"
   xmlns:cc="http://creativecommons.org/ns#"
   xmlns:rdf="http://www.w3.org/1999/02/22-rdf-syntax-ns#"
   xmlns:svg="http://www.w3.org/2000/svg"
   xmlns="http://www.w3.org/2000/svg"
   xmlns:sodipodi="http://sodipodi.sourceforge.net/DTD/sodipodi-0.dtd"
   xmlns:inkscape="http://www.inkscape.org/namespaces/inkscape"
   height="512pt"
   viewBox="-59 0 511 512"
   width="512pt"
   version="1.1"
   id="svg187"
   sodipodi:docname="constitucional1_p.svg"
   inkscape:version="1.0.2 (e86c870879, 2021-01-15)">
  <metadata
     id="metadata193">
    <rdf:RDF>
      <cc:Work
         rdf:about="">
        <dc:format>image/svg+xml</dc:format>
        <dc:type
           rdf:resource="http://purl.org/dc/dcmitype/StillImage" />
        <dc:title></dc:title>
      </cc:Work>
    </rdf:RDF>
  </metadata>
  <defs
     id="defs191" />
  <sodipodi:namedview
     pagecolor="#ffffff"
     bordercolor="#666666"
     borderopacity="1"
     objecttolerance="10"
     gridtolerance="10"
     guidetolerance="10"
     inkscape:pageopacity="0"
     inkscape:pageshadow="2"
     inkscape:window-width="1366"
     inkscape:window-height="704"
     id="namedview189"
     showgrid="false"
     inkscape:zoom="0.74267578"
     inkscape:cx="290.27158"
     inkscape:cy="341.33333"
     inkscape:window-x="0"
     inkscape:window-y="0"
     inkscape:window-maximized="1"
     inkscape:current-layer="svg187" />
  <path
     d="m48.5 512c-26.472656 0-48-21.527344-48-48s21.527344-48 48-48c4.425781 0 8 3.574219 8 8s-3.574219 8-8 8c-17.648438 0-32 14.351562-32 32s14.351562 32 32 32c4.425781 0 8 3.574219 8 8s-3.574219 8-8 8zm0 0"
     id="path139"
     style="fill:#785964;fill-opacity:1" />
  <path
     d="m384.5 432h-336c-4.425781 0-8-3.574219-8-8s3.574219-8 8-8h336c4.425781 0 8 3.574219 8 8s-3.574219 8-8 8zm0 0"
     id="path141"
     style="fill:#785964;fill-opacity:1" />
  <path
     d="m384.5 512h-336c-4.425781 0-8-3.574219-8-8s3.574219-8 8-8h336c4.425781 0 8 3.574219 8 8s-3.574219 8-8 8zm0 0"
     id="path143"
     style="fill:#785964;fill-opacity:1" />
  <path
     d="m8.5 56c-4.425781 0-8-3.585938-8-8 0-26.472656 21.527344-48 48-48 4.425781 0 8 3.585938 8 8s-3.574219 8-8 8c-17.648438 0-32 14.351562-32 32 0 4.414062-3.574219 8-8 8zm0 0"
     id="path145"
     style="fill:#785964;fill-opacity:1" />
  <path
     d="m8.5 472c-4.425781 0-8-3.574219-8-8v-416c0-4.414062 3.574219-8 8-8s8 3.585938 8 8v416c0 4.425781-3.574219 8-8 8zm0 0"
     id="path147"
     style="fill:#785964;fill-opacity:1" />
  <path
     d="m384.5 16h-336c-4.425781 0-8-3.585938-8-8s3.574219-8 8-8h336c4.425781 0 8 3.585938 8 8s-3.574219 8-8 8zm0 0"
     id="path149"
     style="fill:#785964;fill-opacity:1" />
  <path
     d="m384.5 432c-4.425781 0-8-3.574219-8-8v-416c0-4.414062 3.574219-8 8-8s8 3.585938 8 8v416c0 4.425781-3.574219 8-8 8zm0 0"
     id="path151"
     style="fill:#785964;fill-opacity:1" />
  <path
     d="m384.5 512c-4.425781 0-8-3.574219-8-8v-80c0-4.425781 3.574219-8 8-8s8 3.574219 8 8v80c0 4.425781-3.574219 8-8 8zm0 0"
     id="path153"
     style="fill:#785964;fill-opacity:1" />
  <path
     d="m64.5 432c-4.425781 0-8-3.574219-8-8v-416c0-4.414062 3.574219-8 8-8s8 3.585938 8 8v416c0 4.425781-3.574219 8-8 8zm0 0"
     id="path155"
     style="fill:#785964;fill-opacity:1" />
  <path
     d="m352.5 472.015625h-304c-4.425781 0-8-3.574219-8-8 0-4.421875 3.574219-8 8-8h304c4.425781 0 8 3.578125 8 8 0 4.425781-3.574219 8-8 8zm0 0"
     id="path157"
     style="fill:#785964;fill-opacity:1" />
  <path
     d="m352.5 512c-4.425781 0-8-3.574219-8-8v-80c0-4.425781 3.574219-8 8-8s8 3.574219 8 8v80c0 4.425781-3.574219 8-8 8zm0 0"
     id="path159"
     style="fill:#785964;fill-opacity:1" />
  <path
     d="m320.660156 344.128906h-192.0625c-4.425781 0-8-3.578125-8-8 0-4.425781 3.574219-8 8-8h192.0625c4.425782 0 8 3.574219 8 8 0 4.421875-3.585937 8-8 8zm0 0"
     id="path161"
     style="fill:#785964;fill-opacity:1" />
  <path
     d="m272.660156 368.121094h-96.046875c-4.425781 0-8-3.578125-8-8 0-4.425782 3.574219-8 8-8h96.046875c4.425782 0 8 3.574218 8 8 0 4.421875-3.585937 8-8 8zm0 0"
     id="path163"
     style="fill:#785964;fill-opacity:1" />
  <path
     d="m296.613281 112.121094h-143.984375c-4.425781 0-8-3.585938-8-8 0-4.417969 3.574219-8 8-8h143.984375c4.421875 0 8 3.582031 8 8 0 4.414062-3.585937 8-8 8zm0 0"
     id="path165"
     style="fill:#785964;fill-opacity:1" />
  <path
     d="m224.628906 272.144531c-4.425781 0-8-3.578125-8-8v-184.023437c0-4.417969 3.574219-8 8-8 4.421875 0 8 3.582031 8 8v184.023437c0 4.414063-3.585937 8-8 8zm0 0"
     id="path167"
     style="fill:#785964;fill-opacity:1" />
  <path
     d="m288.628906 272.144531h-128c-4.425781 0-8-3.578125-8-8 0-4.417969 3.574219-8 8-8h128c4.421875 0 8 3.582031 8 8 0 4.414063-3.585937 8-8 8zm0 0"
     id="path169"
     style="fill:#785964;fill-opacity:1" />
  <path
     d="m152.628906 208.128906c-17.648437 0-32-14.351562-32-32 0-4.417968 3.574219-8 8-8 4.421875 0 8 3.582032 8 8 0 8.824219 7.175782 16 16 16 8.824219 0 16-7.175781 16-16 0-4.417968 3.574219-8 8-8 4.421875 0 8 3.582032 8 8 0 17.640625-14.351562 32-32 32zm0 0"
     id="path171"
     style="fill:#785964;fill-opacity:1" />
  <path
     d="m176.628906 184.128906h-48c-4.425781 0-8-3.585937-8-8 0-4.417968 3.574219-8 8-8h48c4.421875 0 8 3.582032 8 8 0 4.414063-3.585937 8-8 8zm0 0"
     id="path173"
     style="fill:#785964;fill-opacity:1" />
  <path
     d="m128.628906 184.128906c-.832031 0-1.6875-.136718-2.527344-.417968-4.1875-1.398438-6.457031-5.925782-5.058593-10.117188l24-72.007812c1.402343-4.1875 5.890625-6.480469 10.121093-5.058594 4.183594 1.402344 6.457032 5.929687 5.054688 10.121094l-24 72.007812c-1.125 3.351562-4.238281 5.472656-7.589844 5.472656zm0 0"
     id="path175"
     style="fill:#785964;fill-opacity:1" />
  <path
     d="m176.628906 184.128906c-3.351562 0-6.472656-2.121094-7.585937-5.472656l-24-72.007812c-1.398438-4.191407.863281-8.71875 5.058593-10.121094 4.222657-1.414063 8.71875.871094 10.117188 5.058594l24 72.007812c1.402344 4.191406-.863281 8.71875-5.054688 10.117188-.847656.289062-1.703124.417968-2.535156.417968zm0 0"
     id="path177"
     style="fill:#785964;fill-opacity:1" />
  <path
     d="m296.613281 208.128906c-17.648437 0-32-14.351562-32-32 0-4.417968 3.574219-8 8-8 4.421875 0 8 3.582032 8 8 0 8.824219 7.175781 16 16 16s16-7.175781 16-16c0-4.417968 3.574219-8 8-8 4.421875 0 8 3.582032 8 8 0 17.640625-14.351562 32-32 32zm0 0"
     id="path179"
     style="fill:#785964;fill-opacity:1" />
  <path
     d="m320.613281 184.128906h-48c-4.425781 0-8-3.585937-8-8 0-4.417968 3.574219-8 8-8h48c4.421875 0 8 3.582032 8 8 0 4.414063-3.585937 8-8 8zm0 0"
     id="path181"
     style="fill:#785964;fill-opacity:1" />
  <path
     d="m272.613281 184.128906c-.832031 0-1.6875-.136718-2.527343-.417968-4.1875-1.398438-6.457032-5.925782-5.058594-10.117188l24-72.007812c1.402344-4.1875 5.886718-6.480469 10.121094-5.058594 4.183593 1.402344 6.457031 5.929687 5.054687 10.121094l-24 72.007812c-1.128906 3.351562-4.238281 5.472656-7.589844 5.472656zm0 0"
     id="path183"
     style="fill:#785964;fill-opacity:1" />
  <path
     d="m320.613281 184.128906c-3.351562 0-6.472656-2.121094-7.585937-5.472656l-24-72.007812c-1.398438-4.191407.863281-8.71875 5.058594-10.121094 4.214843-1.414063 8.726562.871094 10.117187 5.058594l24 72.007812c1.402344 4.191406-.863281 8.71875-5.054687 10.117188-.847657.289062-1.703126.417968-2.535157.417968zm0 0"
     id="path185"
     style="fill:#785964;fill-opacity:1" />
</svg>
